<?xml version="1.0" encoding="UTF-8"?>
<svg xmlns="http://www.w3.org/2000/svg" width="720" height="420" viewBox="0 0 720 420" role="img" aria-label="Growth rates O(1), O(log n), O(n), O(n squared) for n from 1 to 16">
  <title>Simple Big-O growth: O(1) / O(log n) / O(n) / O(n²)</title>
  <desc>Formula-derived (c=1) multi-curve chart limited to four common classes for teach frames. Ops = 1, log2(n), n, n². Optional full cheatsheets live separately.</desc>
  <rect width="100%" height="100%" fill="#ffffff"/>
  <text x="360.0" y="24" text-anchor="middle" font-family="system-ui,sans-serif" font-size="16" font-weight="600" fill="#111827">Growth of operations vs input size (four classes)</text>
  <line x1="64.0" y1="36" x2="64.0" y2="368" stroke="#e5e7eb" stroke-width="1"/><text x="64.0" y="402" text-anchor="middle" font-family="system-ui,sans-serif" font-size="13" fill="#374151">1</text><line x1="163.2" y1="36" x2="163.2" y2="368" stroke="#e5e7eb" stroke-width="1"/><text x="163.2" y="402" text-anchor="middle" font-family="system-ui,sans-serif" font-size="13" fill="#374151">4</text><line x1="295.5" y1="36" x2="295.5" y2="368" stroke="#e5e7eb" stroke-width="1"/><text x="295.5" y="402" text-anchor="middle" font-family="system-ui,sans-serif" font-size="13" fill="#374151">8</text><line x1="427.7" y1="36" x2="427.7" y2="368" stroke="#e5e7eb" stroke-width="1"/><text x="427.7" y="402" text-anchor="middle" font-family="system-ui,sans-serif" font-size="13" fill="#374151">12</text><line x1="560.0" y1="36" x2="560.0" y2="368" stroke="#e5e7eb" stroke-width="1"/><text x="560.0" y="402" text-anchor="middle" font-family="system-ui,sans-serif" font-size="13" fill="#374151">16</text><line x1="64" y1="368.0" x2="560" y2="368.0" stroke="#e5e7eb" stroke-width="1"/><text x="54" y="372.0" text-anchor="end" font-family="system-ui,sans-serif" font-size="12" fill="#374151">0</text><line x1="64" y1="285.0" x2="560" y2="285.0" stroke="#e5e7eb" stroke-width="1"/><text x="54" y="289.0" text-anchor="end" font-family="system-ui,sans-serif" font-size="12" fill="#374151">64</text><line x1="64" y1="202.0" x2="560" y2="202.0" stroke="#e5e7eb" stroke-width="1"/><text x="54" y="206.0" text-anchor="end" font-family="system-ui,sans-serif" font-size="12" fill="#374151">128</text><line x1="64" y1="119.0" x2="560" y2="119.0" stroke="#e5e7eb" stroke-width="1"/><text x="54" y="123.0" text-anchor="end" font-family="system-ui,sans-serif" font-size="12" fill="#374151">192</text><line x1="64" y1="36.0" x2="560" y2="36.0" stroke="#e5e7eb" stroke-width="1"/><text x="54" y="40.0" text-anchor="end" font-family="system-ui,sans-serif" font-size="12" fill="#374151">256</text>
  <line x1="64" y1="368" x2="560" y2="368" stroke="#111827" stroke-width="1.5"/>
  <line x1="64" y1="36" x2="64" y2="368" stroke="#111827" stroke-width="1.5"/>
  <text x="312.0" y="416" text-anchor="middle" font-family="system-ui,sans-serif" font-size="13" fill="#111827">n (input size)</text>
  <text x="16" y="202.0" text-anchor="middle" transform="rotate(-90 16 202.0)" font-family="system-ui,sans-serif" font-size="13" fill="#111827">operations (c=1)</text>
  <polyline fill="none" stroke="#2563eb" stroke-width="3" stroke-linejoin="round" stroke-linecap="round" points="64.00,366.70 97.07,366.70 130.13,366.70 163.20,366.70 196.27,366.70 229.33,366.70 262.40,366.70 295.47,366.70 328.53,366.70 361.60,366.70 394.67,366.70 427.73,366.70 460.80,366.70 493.87,366.70 526.93,366.70 560.00,366.70"/><polyline fill="none" stroke="#059669" stroke-width="3" stroke-linejoin="round" stroke-linecap="round" points="64.00,368.00 97.07,366.70 130.13,365.94 163.20,365.41 196.27,364.99 229.33,364.65 262.40,364.36 295.47,364.11 328.53,363.89 361.60,363.69 394.67,363.51 427.73,363.35 460.80,363.20 493.87,363.06 526.93,362.93 560.00,362.81"/><polyline fill="none" stroke="#d97706" stroke-width="3" stroke-linejoin="round" stroke-linecap="round" points="64.00,366.70 97.07,365.41 130.13,364.11 163.20,362.81 196.27,361.52 229.33,360.22 262.40,358.92 295.47,357.62 328.53,356.33 361.60,355.03 394.67,353.73 427.73,352.44 460.80,351.14 493.87,349.84 526.93,348.55 560.00,347.25"/><polyline fill="none" stroke="#dc2626" stroke-width="3" stroke-linejoin="round" stroke-linecap="round" points="64.00,366.70 97.07,362.81 130.13,356.33 163.20,347.25 196.27,335.58 229.33,321.31 262.40,304.45 295.47,285.00 328.53,262.95 361.60,238.31 394.67,211.08 427.73,181.25 460.80,148.83 493.87,113.81 526.93,76.20 560.00,36.00"/>
  <line x1="578" y1="44" x2="608" y2="44" stroke="#2563eb" stroke-width="3"/><text x="616" y="48" font-family="system-ui,sans-serif" font-size="14" fill="#111827">O(1)</text><line x1="578" y1="72" x2="608" y2="72" stroke="#059669" stroke-width="3"/><text x="616" y="76" font-family="system-ui,sans-serif" font-size="14" fill="#111827">O(log n)</text><line x1="578" y1="100" x2="608" y2="100" stroke="#d97706" stroke-width="3"/><text x="616" y="104" font-family="system-ui,sans-serif" font-size="14" fill="#111827">O(n)</text><line x1="578" y1="128" x2="608" y2="128" stroke="#dc2626" stroke-width="3"/><text x="616" y="132" font-family="system-ui,sans-serif" font-size="14" fill="#111827">O(n²)</text>
  <text x="64" y="418" font-family="system-ui,sans-serif" font-size="10" fill="#6b7280">Source: formula c=1 (log₂ n, n, n²). Teach subset of cheatsheet/OpenDSA growth family. CC0 packaging.</text>
</svg>
